<svg id="visual" viewBox="0 0 960 540" width="960" height="540" xmlns="http://www.w3.org/2000/svg" xmlns:xlink="http://www.w3.org/1999/xlink" version="1.1"><path d="M0 50L120 50L120 60L240 60L240 125L360 125L360 125L480 125L480 87L600 87L600 120L720 120L720 104L840 104L840 114L960 114L960 104L960 0L960 0L840 0L840 0L720 0L720 0L600 0L600 0L480 0L480 0L360 0L360 0L240 0L240 0L120 0L120 0L0 0Z" fill="#21aee4"></path><path d="M0 212L120 212L120 233L240 233L240 206L360 206L360 206L480 206L480 174L600 174L600 201L720 201L720 174L840 174L840 185L960 185L960 195L960 102L960 112L840 112L840 102L720 102L720 118L600 118L600 85L480 85L480 123L360 123L360 123L240 123L240 58L120 58L120 48L0 48Z" fill="#009cdb"></path><path d="M0 325L120 325L120 330L240 330L240 384L360 384L360 374L480 374L480 368L600 368L600 320L720 320L720 276L840 276L840 325L960 325L960 357L960 193L960 183L840 183L840 172L720 172L720 199L600 199L600 172L480 172L480 204L360 204L360 204L240 204L240 231L120 231L120 210L0 210Z" fill="#008ad2"></path><path d="M0 384L120 384L120 374L240 374L240 428L360 428L360 417L480 417L480 433L600 433L600 379L720 379L720 330L840 330L840 384L960 384L960 422L960 355L960 323L840 323L840 274L720 274L720 318L600 318L600 366L480 366L480 372L360 372L360 382L240 382L240 328L120 328L120 323L0 323Z" fill="#0078c6"></path><path d="M0 460L120 460L120 395L240 395L240 460L360 460L360 444L480 444L480 460L600 460L600 428L720 428L720 390L840 390L840 449L960 449L960 482L960 420L960 382L840 382L840 328L720 328L720 377L600 377L600 431L480 431L480 415L360 415L360 426L240 426L240 372L120 372L120 382L0 382Z" fill="#0a66b9"></path><path d="M0 487L120 487L120 476L240 476L240 525L360 525L360 509L480 509L480 514L600 514L600 509L720 509L720 471L840 471L840 482L960 482L960 514L960 480L960 447L840 447L840 388L720 388L720 426L600 426L600 458L480 458L480 442L360 442L360 458L240 458L240 393L120 393L120 458L0 458Z" fill="#1954aa"></path><path d="M0 541L120 541L120 541L240 541L240 541L360 541L360 541L480 541L480 541L600 541L600 541L720 541L720 541L840 541L840 541L960 541L960 541L960 512L960 480L840 480L840 469L720 469L720 507L600 507L600 512L480 512L480 507L360 507L360 523L240 523L240 474L120 474L120 485L0 485Z" fill="#25419a"></path></svg>